<svg width="86" height="88" viewBox="0 0 86 88" fill="none" xmlns="http://www.w3.org/2000/svg">
<g clip-path="url(#clip0_101_406)">
<mask id="path-1-inside-1_101_406" fill="white">
<path d="M59.9808 26.0193L36.3242 14.9582C36.3242 14.9582 32.88 11.8317 29.733 15.6572C28.4342 17.2361 28.1521 19.0008 28.1521 19.0008L22.2291 56.5359C21.7563 60.011 25.8993 61.1343 25.8993 61.1343L57.5167 69.2159L57.3926 67.6261C58.0541 66.412 59.5301 64.3793 62.1036 64.1303C62.1611 64.1246 62.2031 64.0854 62.2528 64.0593L63.2131 64.3808L59.9808 26.0193ZM37.8261 31.9379L38.9385 23.4081L56.6568 31.2954L56.9931 39.0285L37.8261 31.9379V31.9379ZM58.3931 64.8926C58.0686 65.1902 57.7744 65.4987 57.5258 65.8113L36.925 60.3176L56.9751 66.5895C56.8935 66.7186 56.8098 66.8471 56.7408 66.9682L30.1999 60.087L56.3184 67.7902L56.2925 67.8456L26.7736 60.0715C26.7581 60.0695 25.3677 59.7671 24.4044 58.941C23.4526 58.1247 23.2702 57.117 23.844 55.859C25.3177 52.6264 30.4965 54.5191 30.5743 54.5482L60.3526 63.6314C59.9544 63.7906 59.6001 63.9962 59.2644 64.2165L39.9177 58.9898L58.3931 64.8926"/>
</mask>
<path d="M59.9808 26.0193L36.3242 14.9582C36.3242 14.9582 32.88 11.8317 29.733 15.6572C28.4342 17.2361 28.1521 19.0008 28.1521 19.0008L22.2291 56.5359C21.7563 60.011 25.8993 61.1343 25.8993 61.1343L57.5167 69.2159L57.3926 67.6261C58.0541 66.412 59.5301 64.3793 62.1036 64.1303C62.1611 64.1246 62.2031 64.0854 62.2528 64.0593L63.2131 64.3808L59.9808 26.0193ZM37.8261 31.9379L38.9385 23.4081L56.6568 31.2954L56.9931 39.0285L37.8261 31.9379V31.9379ZM58.3931 64.8926C58.0686 65.1902 57.7744 65.4987 57.5258 65.8113L36.925 60.3176L56.9751 66.5895C56.8935 66.7186 56.8098 66.8471 56.7408 66.9682L30.1999 60.087L56.3184 67.7902L56.2925 67.8456L26.7736 60.0715C26.7581 60.0695 25.3677 59.7671 24.4044 58.941C23.4526 58.1247 23.2702 57.117 23.844 55.859C25.3177 52.6264 30.4965 54.5191 30.5743 54.5482L60.3526 63.6314C59.9544 63.7906 59.6001 63.9962 59.2644 64.2165L39.9177 58.9898L58.3931 64.8926" fill="#9DA2C8"/>
<path d="M59.9808 26.0193L60.967 25.9363L60.9174 25.3477L60.3905 25.1013L59.9808 26.0193ZM36.3242 14.9582L35.6677 15.7118L35.7791 15.8129L35.9145 15.8762L36.3242 14.9582ZM28.1521 19.0008L27.1752 18.8348L27.1748 18.8368L28.1521 19.0008ZM22.2291 56.5359L21.2519 56.3719L21.2502 56.3826L21.2487 56.3935L22.2291 56.5359ZM25.8993 61.1343L25.6483 62.1104L25.6551 62.1123L25.662 62.1141L25.8993 61.1343ZM57.5167 69.2159L57.2794 70.1957L58.6125 70.5364L58.5034 69.1393L57.5167 69.2159ZM57.3926 67.6261L56.5271 67.1328L56.3821 67.3988L56.4059 67.7027L57.3926 67.6261ZM62.1036 64.1303L62.2005 65.1359L62.2043 65.1355L62.1036 64.1303ZM62.2528 64.0593L62.5585 63.0997L62.1643 62.9677L61.7965 63.1613L62.2528 64.0593ZM63.2131 64.3808L62.9075 65.3404L64.3272 65.8158L64.1993 64.2978L63.2131 64.3808ZM38.9385 23.4081L39.3316 22.4825L38.1299 21.9476L37.9573 23.2714L38.9385 23.4081ZM56.6568 31.2954L57.6457 31.2542L57.6182 30.6229L57.0499 30.3699L56.6568 31.2954ZM56.9931 39.0285L56.6587 39.9779L58.0474 40.4917L57.982 38.9873L56.9931 39.0285ZM57.5258 65.8113L57.2787 66.7884L57.895 66.9528L58.2953 66.4494L57.5258 65.8113ZM36.925 60.3176L37.1721 59.3405L36.6379 61.2832L36.925 60.3176ZM56.9751 66.5895L57.8073 67.1394L58.5176 66.0166L57.2622 65.6239L56.9751 66.5895ZM56.7408 66.9682L56.5003 67.9471L57.2232 68.1345L57.5971 67.478L56.7408 66.9682ZM30.1999 60.087L30.4405 59.1081L29.9282 61.0572L30.1999 60.087ZM56.3184 67.7902L57.2118 68.2284L57.716 67.152L56.5902 66.8199L56.3184 67.7902ZM56.2925 67.8456L56.0483 68.8235L56.8359 69.0309L57.1859 68.2837L56.2925 67.8456ZM26.7736 60.0715L27.0178 59.0936L26.9576 59.0777L26.8959 59.0696L26.7736 60.0715ZM23.844 55.859L24.7416 56.2879L24.7417 56.2877L23.844 55.859ZM30.5743 54.5482L30.2359 55.4962L30.2646 55.5069L30.2939 55.5159L30.5743 54.5482ZM60.3526 63.6314L60.7165 64.572L63.388 63.504L60.633 62.6637L60.3526 63.6314ZM59.2644 64.2165L59.0142 65.1929L59.4359 65.3068L59.8019 65.0666L59.2644 64.2165ZM39.9177 58.9898L40.1678 58.0134L39.6249 59.9536L39.9177 58.9898ZM60.3905 25.1013L36.7339 14.0402L35.9145 15.8762L59.5711 26.9373L60.3905 25.1013ZM36.3242 14.9582C36.9807 14.2046 36.9803 14.2042 36.9798 14.2039C36.9797 14.2037 36.9793 14.2033 36.9789 14.203C36.9783 14.2025 36.9776 14.2019 36.9769 14.2012C36.9754 14.1999 36.9738 14.1984 36.9719 14.1967C36.9681 14.1933 36.9634 14.1891 36.9578 14.1843C36.9468 14.1746 36.9323 14.1621 36.9145 14.147C36.8789 14.1169 36.8298 14.0766 36.7683 14.0288C36.6455 13.9333 36.4713 13.8063 36.253 13.6694C35.8206 13.3982 35.1929 13.074 34.4338 12.8904C33.6685 12.7052 32.7581 12.661 31.7914 12.9702C30.8215 13.2805 29.8636 13.9247 28.9739 15.0062L30.4921 16.3082C31.1759 15.477 31.8287 15.0775 32.3897 14.898C32.9539 14.7175 33.4945 14.7376 33.9837 14.8559C34.479 14.9757 34.9091 15.194 35.2207 15.3894C35.3746 15.4859 35.494 15.5733 35.5718 15.6339C35.6106 15.664 35.6386 15.6872 35.655 15.701C35.6632 15.7079 35.6684 15.7125 35.6706 15.7144C35.6717 15.7153 35.672 15.7156 35.6715 15.7152C35.6713 15.715 35.6709 15.7146 35.6702 15.714C35.6699 15.7137 35.6695 15.7134 35.6691 15.713C35.6689 15.7129 35.6686 15.7125 35.6685 15.7124C35.6681 15.7121 35.6677 15.7118 36.3242 14.9582ZM28.9739 15.0062C28.2331 15.9068 27.788 16.8522 27.5277 17.5659C27.3969 17.9246 27.3106 18.2305 27.2563 18.4514C27.2291 18.562 27.2098 18.6518 27.1968 18.7169C27.1903 18.7494 27.1854 18.7759 27.1819 18.7957C27.1801 18.8056 27.1787 18.8138 27.1775 18.8203C27.177 18.8236 27.1765 18.8265 27.1761 18.8289C27.1759 18.8301 27.1757 18.8312 27.1756 18.8321C27.1755 18.8326 27.1754 18.8331 27.1754 18.8335C27.1753 18.8337 27.1753 18.8341 27.1753 18.8342C27.1752 18.8345 27.1752 18.8348 28.1521 19.0008C29.1291 19.1668 29.129 19.1671 29.129 19.1674C29.129 19.1675 29.1289 19.1677 29.1289 19.1679C29.1288 19.1682 29.1288 19.1685 29.1288 19.1688C29.1287 19.1694 29.1286 19.1698 29.1285 19.1702C29.1284 19.1709 29.1284 19.1712 29.1284 19.171C29.1284 19.1708 29.1287 19.1689 29.1294 19.1655C29.1306 19.1587 29.133 19.1457 29.1367 19.1269C29.1442 19.0893 29.1571 19.0289 29.1766 18.9494C29.2158 18.7901 29.2813 18.5561 29.3834 18.2763C29.5888 17.7129 29.9341 16.9865 30.4921 16.3082L28.9739 15.0062ZM27.1748 18.8368L21.2519 56.3719L23.2064 56.6999L29.1294 19.1648L27.1748 18.8368ZM21.2487 56.3935C20.9423 58.6453 22.1704 60.1224 23.3116 60.9581C23.8811 61.3752 24.4581 61.6593 24.8862 61.8387C25.1022 61.9292 25.2853 61.9951 25.4175 62.0392C25.4837 62.0613 25.5375 62.078 25.5766 62.0898C25.5962 62.0956 25.6121 62.1003 25.6241 62.1037C25.6302 62.1054 25.6352 62.1068 25.6392 62.108C25.6412 62.1085 25.643 62.109 25.6445 62.1094C25.6453 62.1096 25.646 62.1098 25.6466 62.11C25.6469 62.1101 25.6473 62.1102 25.6475 62.1102C25.6479 62.1103 25.6483 62.1104 25.8993 61.1343C26.1503 60.1582 26.1507 60.1583 26.151 60.1584C26.1511 60.1584 26.1515 60.1585 26.1517 60.1586C26.152 60.1587 26.1523 60.1588 26.1526 60.1588C26.1531 60.159 26.1534 60.159 26.1534 60.1591C26.1535 60.1591 26.1526 60.1588 26.1508 60.1583C26.1471 60.1573 26.1399 60.1552 26.1292 60.152C26.1079 60.1456 26.0731 60.1348 26.0269 60.1194C25.9344 60.0885 25.7975 60.0395 25.6325 59.9703C25.2986 59.8305 24.8694 59.6166 24.4622 59.3184C23.6501 58.7237 23.0431 57.9015 23.2096 56.6783L21.2487 56.3935ZM25.662 62.1141L57.2794 70.1957L57.754 68.2362L26.1366 60.1546L25.662 62.1141ZM58.5034 69.1393L58.3793 67.5494L56.4059 67.7027L56.53 69.2926L58.5034 69.1393ZM58.2581 68.1193C58.8764 66.9847 60.13 65.3362 62.2005 65.1359L62.0067 63.1248C58.9303 63.4225 57.2319 65.8394 56.5271 67.1328L58.2581 68.1193ZM62.2043 65.1355C62.4309 65.1127 62.5954 65.0255 62.6703 64.9823C62.7034 64.9632 62.738 64.9411 62.7382 64.941C62.7475 64.9351 62.7324 64.945 62.7092 64.9572L61.7965 63.1613C61.7484 63.1866 61.7094 63.2112 61.6951 63.2202C61.6716 63.235 61.6828 63.2279 61.692 63.2226C61.719 63.207 61.8339 63.1422 62.003 63.1252L62.2043 65.1355ZM61.9472 65.0188L62.9075 65.3404L63.5187 63.4212L62.5585 63.0997L61.9472 65.0188ZM64.1993 64.2978L60.967 25.9363L58.9946 26.1023L62.2269 64.4638L64.1993 64.2978ZM38.8073 32.0746L39.9197 23.5448L37.9573 23.2714L36.8449 31.8012L38.8073 32.0746ZM38.5454 24.3336L56.2637 32.221L57.0499 30.3699L39.3316 22.4825L38.5454 24.3336ZM55.6679 31.3367L56.0043 39.0697L57.982 38.9873L57.6457 31.2542L55.6679 31.3367ZM57.3276 38.0791L38.1606 30.9885L37.4917 32.8874L56.6587 39.9779L57.3276 38.0791ZM57.73 64.1403C57.3752 64.4656 57.0435 64.8119 56.7563 65.1732L58.2953 66.4494C58.5052 66.1854 58.762 65.9147 59.0562 65.6449L57.73 64.1403ZM57.7729 64.8341L37.1721 59.3405L36.6779 61.2948L57.2787 66.7884L57.7729 64.8341ZM36.6379 61.2832L56.6881 67.5551L57.2622 65.6239L37.212 59.352L36.6379 61.2832ZM56.1429 66.0396C56.0723 66.1513 55.9687 66.3106 55.8846 66.4584L57.5971 67.478C57.6509 67.3836 57.7147 67.2858 57.8073 67.1394L56.1429 66.0396ZM56.9814 65.9893L30.4405 59.1081L29.9594 61.0658L56.5003 67.9471L56.9814 65.9893ZM29.9282 61.0572L56.0467 68.7604L56.5902 66.8199L30.4717 59.1167L29.9282 61.0572ZM55.4251 67.352L55.3991 67.4074L57.1859 68.2837L57.2118 68.2284L55.4251 67.352ZM56.5367 66.8676L27.0178 59.0936L26.5294 61.0495L56.0483 68.8235L56.5367 66.8676ZM26.8959 59.0696C26.9602 59.078 27.0014 59.0904 26.9334 59.0738C26.9027 59.0663 26.8546 59.0541 26.7924 59.0366C26.6677 59.0015 26.4908 58.9466 26.2879 58.8692C25.8696 58.7098 25.3989 58.4767 25.0397 58.1687L23.7691 59.7132C24.3732 60.2313 25.0794 60.5625 25.601 60.7613C25.868 60.8631 26.1018 60.9358 26.2723 60.9838C26.3577 61.0079 26.4283 61.026 26.4804 61.0387C26.4951 61.0422 26.5832 61.0645 26.6513 61.0734L26.8959 59.0696ZM25.0397 58.1687C24.6989 57.8764 24.5674 57.6162 24.5254 57.3849C24.4811 57.1411 24.5118 56.7919 24.7416 56.2879L22.9463 55.4301C22.6024 56.1841 22.4374 56.9677 22.5789 57.7463C22.7226 58.5375 23.1581 59.1892 23.7691 59.7132L25.0397 58.1687ZM24.7417 56.2877C25.2107 55.259 26.2977 54.9214 27.6888 54.9893C28.3486 55.0216 28.9824 55.1454 29.4628 55.2666C29.9416 55.3874 30.2448 55.4995 30.2359 55.4962L30.9127 53.6002C30.8397 53.5729 29.4144 53.0516 27.7765 52.9715C26.1903 52.894 23.951 53.2263 22.9462 55.4303L24.7417 56.2877ZM30.2939 55.5159L60.0722 64.599L60.633 62.6637L30.8547 53.5806L30.2939 55.5159ZM59.9887 62.6907C59.5072 62.8832 59.0922 63.1267 58.7269 63.3664L59.8019 65.0666C60.108 64.8657 60.4016 64.6979 60.7165 64.572L59.9887 62.6907ZM59.5145 63.2402L40.1678 58.0134L39.6675 59.9661L59.0142 65.1929L59.5145 63.2402ZM39.6249 59.9536L58.1004 65.8564L58.6858 63.9288L40.2104 58.026L39.6249 59.9536Z" fill="#6668AA" mask="url(#path-1-inside-1_101_406)"/>
</g>
<defs>
<clipPath id="clip0_101_406">
<rect width="60.6095" height="60.8278" fill="white" transform="matrix(0.759079 0.650999 -0.635294 0.77227 39.4325 0.885742)"/>
</clipPath>
</defs>
</svg>
